Coordinates
version=1
nRows=17
nColumns=36
inDegrees=yes

Units are S.I. units (second, meters, Newtons, ...)
If the header above contains a line with 'inDegrees', this indicates whether rotational values are in degrees (yes) or radians (no).

endheader
time	pelvis_tilt	pelvis_list	pelvis_rotation	pelvis_tx	pelvis_ty	pelvis_tz	hip_flexion_r	hip_adduction_r	hip_rotation_r	knee_angle_r	knee_angle_r_beta	ankle_angle_r	subtalar_angle_r	mtp_angle_r	hip_flexion_l	hip_adduction_l	hip_rotation_l	knee_angle_l	knee_angle_l_beta	ankle_angle_l	subtalar_angle_l	mtp_angle_l	lumbar_extension	lumbar_bending	lumbar_rotation	arm_flex_r	arm_add_r	arm_rot_r	elbow_flex_r	pro_sup_r	arm_flex_l	arm_add_l	arm_rot_l	elbow_flex_l	pro_sup_l
      1.47916670	    -21.13031652	      0.62754266	     -0.47914044	     -1.01978472	      1.23659181	     -0.06259265	     37.64568645	     -3.46719425	      0.23965792	     28.21896484	      0.49251385	     15.40798765	     -7.87977860	     -7.49999987	     40.40442115	     -3.04998745	     -3.20489749	     32.54840404	      0.56807682	     15.37650820	     -4.30242154	     -7.49999987	    -18.87353118	      3.22878617	      2.23137347	    -36.28829669	     -9.67961683	     -5.41133211	     60.62340038	     70.02803333	    -38.20103458	     -7.31313724	     -6.20791143	     45.81998121	     54.24302036
      1.48333330	    -21.47931651	      0.63798869	     -0.46296967	     -1.02054476	      1.23758171	     -0.06219310	     38.31569074	     -3.48767572	      0.26759107	     28.78271045	      0.50235306	     15.75871216	     -7.71386954	     -7.49999987	     41.07319120	     -3.08988650	     -3.21925924	     33.03168419	      0.57651165	     15.30331633	     -4.73812607	     -7.49999987	    -18.83371378	      3.25430877	      2.06978248	    -36.15772155	     -9.66246346	     -5.68746503	     60.57655794	     70.10152450	    -37.81393946	     -6.93343830	     -7.39229336	     45.62879625	     54.46425144
      1.48750000	    -21.68451714	      0.59882240	     -0.45932651	     -1.02101412	      1.23889257	     -0.06191440	     38.74564106	     -3.45193123	      0.24152753	     29.17306663	      0.50916607	     15.96748607	     -7.65052826	     -7.49999987	     41.47636107	     -3.17105279	     -3.27302689	     33.28852784	      0.58099441	     15.32018351	     -4.87049655	     -7.49999987	    -18.97624568	      3.30274246	      1.99348663	    -35.97561839	     -9.71249707	     -5.72752980	     60.83783781	     69.75053134	    -37.54313650	     -6.92607228	     -7.51670359	     46.33999979	     54.66915126
      1.49166670	    -21.77136180	      0.63539793	     -0.52342826	     -1.02031975	      1.24012770	     -0.06187101	     38.99863881	     -3.42868761	      0.37779343	     29.46802603	      0.51431408	     15.97050198	     -7.75965963	     -7.49999987	     41.57425522	     -3.16962461	     -3.33809828	     33.37536371	      0.58250999	     15.03342409	     -5.35274917	     -7.49999987	    -19.45595381	      3.26246224	      1.92963514	    -35.17620576	     -9.63745239	     -5.90017477	     59.72655770	     69.34218116	    -36.59753505	     -6.59293160	     -8.43927304	     45.42120056	     54.89792517
      1.49583330	    -21.97104723	      0.60133404	     -0.62052868	     -1.02105351	      1.23496821	     -0.06125630	     39.48027848	     -3.35022159	      0.44901746	     29.91236467	      0.52206925	     16.11936983	     -8.08599315	     -7.49999987	     41.98723669	     -3.28425595	     -3.36774847	     33.72731385	      0.58865267	     15.10019599	     -5.50345813	     -7.49999987	    -19.74489896	      3.25938350	      1.81015775	    -34.75258887	     -9.70743680	     -5.85516339	     59.47691969	     68.57014931	    -36.23634766	     -6.34564894	     -9.11190980	     45.55715599	     55.27853729
      1.50000000	    -22.04689489	      0.55551555	     -0.58907536	     -1.01983874	      1.24035299	     -0.05955189	     39.57411768	     -3.26715372	      0.39565303	     29.95396040	      0.52279523	     15.86956610	     -8.27270175	     -7.49999987	     42.02971289	     -3.38108776	     -3.37424122	     33.72354727	      0.58858694	     14.80900925	     -5.52223204	     -7.49999987	    -20.21882679	      3.29365452	      1.61603399	    -33.94062417	     -9.67921182	     -5.82322964	     58.73067377	     68.79426029	    -35.21345516	     -6.22283520	     -9.64090088	     44.66369797	     55.21179818
      1.50416670	    -22.00970292	      0.49897638	     -0.53916231	     -1.02032854	      1.23989095	     -0.06037327	     39.58424733	     -3.22415081	      0.30591070	     29.94609672	      0.52265799	     15.66795086	     -8.41860087	     -7.49999987	     42.06964687	     -3.42297531	     -3.34566690	     33.90357254	      0.59172897	     14.65228823	     -5.40355491	     -7.49999987	    -20.92433952	      3.28055197	      1.43184331	    -33.02337725	     -9.63674924	     -5.73136944	     57.86515697	     68.69685104	    -34.26622002	     -6.08211303	    -10.19104245	     44.16275604	     55.29682232
      1.50833330	    -22.01301634	      0.42373402	     -0.56612526	     -1.01964719	      1.23425475	     -0.06105025	     39.76533576	     -3.15468562	      0.26890176	     30.27936486	      0.52847461	     15.87213198	     -8.46880514	     -7.49999987	     42.27479873	     -3.56740015	     -3.40875213	     34.47982192	      0.60178642	     14.93504384	     -5.55473090	     -7.49999987	    -21.47929264	      3.37338146	      1.31364075	    -32.47891909	     -9.76576820	     -5.63754862	     57.44757174	     68.48096060	    -33.69408586	     -5.96475692	    -10.58159332	     44.10655019	     55.39581347
      1.51250000	    -22.00391990	      0.38354973	     -0.61887468	     -1.01983788	      1.23507697	     -0.06151223	     39.97850251	     -3.13426862	      0.23163706	     30.70962700	      0.53598410	     15.99639749	     -8.58159327	     -7.49999987	     42.52471644	     -3.67888894	     -3.45246271	     34.99962781	      0.61085874	     15.09478130	     -5.66992517	     -7.49999987	    -22.05781441	      3.39949395	      1.19023963	    -31.70614504	     -9.92754096	     -5.53378026	     56.82098316	     68.25122766	    -32.78954048	     -5.79498328	    -10.99987698	     43.55915897	     55.53654867
      1.51666670	    -22.02237922	      0.25773172	     -0.59023258	     -1.01982106	      1.23602293	     -0.06085599	     40.09046959	     -3.06103311	      0.12776348	     30.98109024	      0.54072203	     16.13046032	     -8.60006354	     -7.49999987	     42.77623930	     -3.80170216	     -3.36392696	     35.38853492	      0.61764645	     15.32921654	     -5.60840299	     -7.49999987	    -22.75465691	      3.44820626	      1.08492694	    -30.84150761	     -9.95222209	     -5.50104573	     56.09742600	     67.83264888	    -31.86992544	     -5.72591716	    -11.23509588	     43.41060043	     55.72151075
      1.52083330	    -22.12234516	      0.23223757	     -0.52900295	     -1.02157786	      1.23312103	     -0.06105748	     40.48865626	     -3.08206862	      0.14227250	     31.47435424	      0.54933111	     16.35752323	     -8.69291815	     -7.49999987	     43.23570878	     -3.85827432	     -3.37089601	     35.93810728	      0.62723830	     15.40059935	     -5.87362463	     -7.49999987	    -23.39181027	      3.49292739	      0.95711264	    -30.15229652	    -10.01496581	     -5.45936085	     55.72050420	     67.63235225	    -30.93945803	     -5.74952410	    -11.34479360	     43.28317683	     55.82284840
      1.52500000	    -22.25888552	      0.15197513	     -0.45207075	     -1.01994622	      1.23080932	     -0.06273670	     40.83031808	     -3.13020535	     -0.05066576	     31.95426939	      0.55770721	     16.32697815	     -8.95778134	     -7.49999987	     43.63733239	     -3.84312079	     -3.21131757	     36.43519212	      0.63591407	     15.53397387	     -5.78652820	     -7.49999987	    -23.81390217	      3.61170802	      0.73787792	    -29.48242337	    -10.15935865	     -5.38561501	     55.04308480	     67.58446864	    -30.02284810	     -5.65518891	    -11.34404282	     42.82846379	     55.86538203
      1.52916670	    -22.60356326	      0.20656573	     -0.50260652	     -1.01997024	      1.23147567	     -0.06248912	     41.41720985	     -3.20058576	     -0.00717740	     32.34492320	      0.56452541	     16.60336948	     -9.00241871	     -7.49999987	     44.20238123	     -3.80954215	     -3.13722291	     36.91020185	      0.64420455	     15.65499606	     -5.93686999	     -7.49999987	    -24.15887029	      3.56199122	      0.53748698	    -28.57556499	    -10.33596638	     -5.26019134	     54.23345610	     69.21152177	    -29.12159649	     -5.60652466	    -11.08054073	     42.50756075	     55.26302808
      1.53333330	    -22.67729062	      0.14350022	     -0.54498145	     -1.02067955	      1.23097615	     -0.06215453	     41.71515510	     -3.15687413	     -0.04907856	     32.71223513	      0.57093621	     16.51449558	     -9.08871915	     -7.49999987	     44.44518229	     -3.83383488	     -3.01610685	     37.19451761	      0.64916680	     15.58272004	     -6.16428389	     -7.49999987	    -24.82893943	      3.63904677	      0.36494556	    -27.67991174	    -10.44486047	     -5.29784755	     53.64869419	     68.87366244	    -28.14569447	     -5.55486459	    -11.09942467	     42.23051922	     55.35726280
      1.53750000	    -23.00833910	      0.18441385	     -0.68896238	     -1.01901654	      1.22430068	     -0.06350053	     42.45563978	     -3.18696943	      0.02352906	     33.34836233	      0.58203872	     16.86640526	     -9.03845168	     -7.49999987	     45.06075931	     -3.83220972	     -3.04801943	     37.85185504	      0.66063950	     16.03478057	     -6.27864294	     -7.49999987	    -25.10373899	      3.65470550	      0.13269953	    -27.05003174	    -10.64338195	     -5.24566786	     53.12581953	     68.47247474	    -27.55782294	     -5.42846484	    -11.05360789	     42.09055098	     55.43251659
      1.54166670	    -23.49421074	      0.23488800	     -0.81626389	     -1.02003160	      1.22213721	     -0.06385119	     43.39408652	     -3.22039603	      0.09924229	     34.07339379	      0.59469291	     17.27320470	     -8.97125578	     -7.49999987	     45.89325866	     -3.81930203	     -3.02621864	     38.43806935	      0.67087087	     16.34197308	     -6.41161458	     -7.49999987	    -25.10943885	      3.59716375	     -0.09020305	    -26.33259173	    -10.83842588	     -4.96222149	     52.33909194	     68.13890843	    -26.79690409	     -5.41144885	    -10.89140524	     41.61645965	     55.50455410
      1.54583330	    -23.67460353	      0.25692812	     -0.91030211	     -1.01908180	      1.22140428	     -0.06371526	     44.00837201	     -3.20822102	      0.19848395	     34.86807990	      0.60856280	     17.69732295	     -8.97918957	     -7.49999987	     46.41353661	     -3.84321139	     -2.96616929	     39.11115971	      0.68261851	     16.84084203	     -6.43259937	     -7.49999987	    -25.47281717	      3.59086687	     -0.37598049	    -25.58502401	    -11.01358930	     -4.83830535	     51.85255420	     67.86556563	    -26.01422609	     -5.44090820	    -10.71371486	     41.42935099	     55.57876854
